<svg width="232" height="67" viewBox="0 0 232 67" fill="none" xmlns="http://www.w3.org/2000/svg">
<path d="M13.2341 13.9725V40.2592H26.3775C28.1787 40.2592 29.8732 39.9233 31.4608 39.2516C33.0483 38.5495 34.4375 37.603 35.6282 36.4123C36.8188 35.2216 37.75 33.8325 38.4217 32.2449C39.1239 30.6268 39.475 28.9171 39.475 27.1158C39.475 25.3145 39.1239 23.6201 38.4217 22.0325C37.75 20.4144 36.8188 19.01 35.6282 17.8193C34.4375 16.6286 33.0483 15.6975 31.4608 15.0258C29.8732 14.3236 28.1787 13.9725 26.3775 13.9725H13.2341ZM13.2341 66.5H0.090808V0.829183H26.3775C28.7894 0.829183 31.1097 1.14975 33.3384 1.79089C35.5671 2.4015 37.6432 3.28688 39.5666 4.44703C41.5205 5.57666 43.2913 6.95052 44.8789 8.56863C46.497 10.1562 47.8708 11.927 49.0005 13.8809C50.1606 15.8349 51.046 17.9262 51.6566 20.1549C52.2977 22.3836 52.6183 24.7039 52.6183 27.1158C52.6183 30.7184 51.9314 34.1225 50.5575 37.3282C49.1836 40.5034 47.306 43.2817 44.9247 45.663C42.5433 48.0444 39.7498 49.922 36.5441 51.2959C33.3689 52.6697 29.98 53.3567 26.3775 53.3567H13.2341V66.5ZM105.375 66.5H60.3577V0.829183H105.375V13.9725H73.5011V27.1158H95.0708V40.2592H73.5011V53.3567H105.375V66.5ZM142.149 66.5H129.051V13.9725H109.313V0.829183H161.841V13.9725H142.149V66.5ZM218.078 52.0744H205.575V39.5722H192.57V27.1158H205.575V13.6061H218.078V27.1158H231.038V39.5722H218.078V52.0744Z" fill="url(#paint0_linear_426_1215)"/>
<defs>
<linearGradient id="paint0_linear_426_1215" x1="114.5" y1="-25.5" x2="114.5" y2="90.5" gradientUnits="userSpaceOnUse">
<stop stop-color="#567AB1"/>
<stop offset="1" stop-color="#FF5E74"/>
</linearGradient>
</defs>
</svg>
