<svg width="232" height="66" viewBox="0 0 232 66" fill="none" xmlns="http://www.w3.org/2000/svg">
<path d="M13.5261 13.4725V39.7592H26.6694C28.4707 39.7592 30.1652 39.4233 31.7528 38.7516C33.3403 38.0495 34.7295 37.103 35.9201 35.9123C37.1108 34.7216 38.042 33.3325 38.7137 31.7449C39.4159 30.1268 39.767 28.4171 39.767 26.6158C39.767 24.8145 39.4159 23.1201 38.7137 21.5325C38.042 19.9144 37.1108 18.51 35.9201 17.3193C34.7295 16.1286 33.3403 15.1975 31.7528 14.5258C30.1652 13.8236 28.4707 13.4725 26.6694 13.4725H13.5261ZM13.5261 66H0.3828V0.329183H26.6694C29.0813 0.329183 31.4017 0.649752 33.6304 1.29089C35.8591 1.9015 37.9352 2.78688 39.8586 3.94703C41.8125 5.07666 43.5833 6.45052 45.1708 8.06863C46.789 9.65621 48.1628 11.427 49.2924 13.3809C50.4526 15.3349 51.338 17.4262 51.9486 19.6549C52.5897 21.8836 52.9103 24.2039 52.9103 26.6158C52.9103 30.2184 52.2234 33.6225 50.8495 36.8282C49.4756 40.0034 47.598 42.7817 45.2166 45.163C42.8353 47.5444 40.0417 49.422 36.8361 50.7959C33.6609 52.1697 30.272 52.8567 26.6694 52.8567H13.5261V66ZM105.667 66H60.6497V0.329183H105.667V13.4725H73.7931V26.6158H95.3628V39.7592H73.7931V52.8567H105.667V66ZM142.441 66H129.343V13.4725H109.605V0.329183H162.133V13.4725H142.441V66ZM218.37 51.5744H205.867V39.0722H192.861V26.6158H205.867V13.1061H218.37V26.6158H231.33V39.0722H218.37V51.5744Z" fill="url(#paint0_linear_451_410)"/>
<defs>
<linearGradient id="paint0_linear_451_410" x1="153.285" y1="-26" x2="153.285" y2="90" gradientUnits="userSpaceOnUse">
<stop stop-color="#567AB1"/>
<stop offset="1" stop-color="#FF5E74"/>
</linearGradient>
</defs>
</svg>
